. 
  
http://www.torrenting.com/        :     Greatest Movie Tracker on The Net!!!
 
http://www.Torrenting.com          :     Once & For all ;)


               www . Torrenting . Com 

(((((((((((((= Enjoy No RAR releases =))))))))))))))))))))


...................................NFO:....................................

.      *********** ****    ****      ***      ******** *********** ****    *** **********
           *+*     +*+*+* *+*+*+   *+* *+*   *+*    *+*    *+*     *+*+*   *+* *+*        
           +*+     +*+ +*+*+ +*+  +*+   +*+  +*+           +*+     *+*+*+  +*+ +*+        
           +$+     +$+  +*+  +$+ +$++*++$++* *$*           +$+     +$+ +*+ +$+ +$++*++$  
           +$+     +$+       +$+ +$+     +$+ +$+   +$+$    +$+     +$+  +$+$+$ +$+        
           $+$     $+$       $+$ $+$     $+$ $+$    $+$    $+$     $+$   $+$+$ $+$        
       $$$$$$$$$$$ $$$       $$$ $$$     $$$  $$$$$$$$ $$$$$$$$$$$ $$$    $$$$ $$$$$$$$$$     
                                                



                           Another Fine Release Brought to you from - IMAGiNE                   
                                                 

********************************************************************************************************************                                
                               Super 8 2011 CAM READNFO XViD - IMAGiNE
********************************************************************************************************************

Ripper ...........: IMAGiNE                                      IMDB Rating.......: 0.0/10                             
Video Codec.......: XVID                                         Release Date......: 10/06/11
Audio Codec.......: MP3                                          Theatre Date......: 10/06/11
Audio Bitrate.....: 128                                          Runtime.......: 1h 43mn
Subtitles.........: NIL                                          Language..........: ENGLISH
Resolution......: 720 x 480                                      IMDb URL..........: http://www.imdb.com/title/tt1650062/


[color=yellow]DETAILS:[/color]

Video
ID                               : 0
Format                           : MPEG-4 Visual
Format profile                   : Advanced Simple@L5
Format settings, BVOP            : Yes
Format settings, QPel            : No
Format settings, GMC             : No warppoints
Format settings, Matrix          : Default (MPEG)
Muxing mode                      : Packed bitstream
Codec ID                         : XVID
Codec ID/Hint                    : XviD
Duration                         : 1h 43mn
Bit rate                         : 1 764 Kbps
Width                            : 720 pixels
Height                           : 480 pixels
Display aspect ratio             : 3:2
Frame rate                       : 25.000 fps
Standard                         : NTSC
Color space                      : YUV
Chroma subsampling               : 4:2:0
Bit depth                        : 8 bits
Scan type                        : Progressive
Compression mode                 : Lossy
Bits/(Pixel*Frame)               : 0.204
Stream size                      : 1.28 GiB (93%)
Writing library                  : XviD 61

Audio
ID                               : 1
Format                           : MPEG Audio
Format version                   : Version 1
Format profile                   : Layer 3
Mode                             : Joint stereo
Mode extension                   : MS Stereo
Codec ID                         : 55
Codec ID/Hint                    : MP3
Duration                         : 1h 43mn
Bit rate mode                    : Constant
Bit rate                         : 128 Kbps
Channel(s)                       : 2 channels
Sampling rate                    : 44.1 KHz
Compression mode                 : Lossy
Stream size                      : 94.8 MiB (7%)
Alignment                        : Split accross interleaves
Interleave, duration             : 40 ms (1.00 video frame)
Writing library                  : LAME3.98r
Encoding settings                : -m j -V 4 -q 2 -lowpass 17 -b 128






[color=yellow]SOURCES:[/color]

Thanx Mate :D

[color=yellow]NOTES:[/color]

IMAGiNE bringing you another release..........
Super 8 CAM...........
Ok here we are with our first go at Super 8.....
Source had its problems, moves alot over cropped ect....
So rather than crop it to hell even further 
we opted to leave it as is 
to save as much picture as possible.....
We made a script to sharpen a bit and adjusted the colors :P
Audio was then converted from pcm to mp3 
then remuxed to our encode :D
Not the best cam, certainly not for everyone,
but will do till something better comes up....
Anyhow,
Enjoy Folks!

[color=yellow]SCREENS:[/color]

[IMG]http://www.grinshare.com/img/YRPNFQ.png[/IMG]
[IMG]http://www.grinshare.com/img/LT547A.png[/IMG]
[IMG]http://www.grinshare.com/img/6UCMTZ.png[/IMG]
[IMG]http://www.grinshare.com/img/6YDPGK.png[/IMG]
[IMG]http://www.grinshare.com/img/85JE5V.png[/IMG]


[color=yellow]GREETS:[/color]

FLAWL3SS,ViSiON,FUSiON,Rx,SecretMyth,BirdFlu,ELEKTRI4KA,SERENiTY and Autotron
And to all the other p2p grps past and present 


[COLOR=RED]Looking for these,syncers,cammers,silver supplier,Audio.....Have anything to offer????......
Contact us imaginegroup@hushmail.com[/COLOR]